# xmcd
#
# Track frame offsets:
# 150
# 14958
# 29529
# 52002
# 70216
# 85950
# 98418
# 111600
# 149563
#
# Disc length: 2405 seconds
#
# Revision: 0
# Processed by: cddbd v1.4b42PL1 Copyright (c) Steve Scherf et al.
# Submitted via: Audion 2.5.0 (http://www.panic.com/audion/)
#
DISCID=87096309
DTITLE=stikfigure - stickfigure
DYEAR=1900
DGENRE=
TTITLE0=waking
TTITLE1=stratusphere
TTITLE2=tribute
TTITLE3=stomthing special
TTITLE4=funky city
TTITLE5=adolescent
TTITLE6=blue
TTITLE7=mystic rust
TTITLE8=*
EXTD=
EXTT0=
EXTT1=
EXTT2=
EXTT3=
EXTT4=
EXTT5=
EXTT6=
EXTT7=
EXTT8=
PLAYORDER=
